<?xml version="1.0" encoding="utf-8"?>
<!-- Generator: Adobe Illustrator 16.0.0, SVG Export Plug-In . SVG Version: 6.00 Build 0)  -->
<svg version="1.2" baseProfile="tiny" id="Layer_1" xmlns="http://www.w3.org/2000/svg" xmlns:xlink="http://www.w3.org/1999/xlink"
	 x="0px" y="0px" width="143.792px" height="343.299px" viewBox="0 0 143.792 343.299" xml:space="preserve">
<path d="M23.975,343.248c0.485-2.77,0.669-5.238,1.431-8.284C24.644,338.01,24.46,340.479,23.975,343.248
	c8.048,0.213,15.526-0.187,21.055-2.218c-1.49-6.699-8.84-9.93-12-17c-0.57-1.279-0.19-3.68-1-5c-1.94-3.18-5.67-4.908-7-9
	c-0.56-1.738,0.21-4.17,0-6c-1.47-12.959-3.9-37.029-4-37.029c-0.34-3.291,0.07-3.16,0-4.971c2.73-17.139,3.65-25.779,4-43
	c3.46-0.809,4.22,1.871,6,0c2.03-17.299,13.2-30.75,20.19-39.24c1.1-2.289,1.23-1.5,2.81-3.76c8.08-13.6,32.81-19.359,21-39
	c8.761,1.09,12.39-2.939,19-4c-0.89-5.99-1.8-6.25-2-12c-7.489-3.85-13.97-8.699-18-15.999c-0.01-0.19-0.97-1.92-1-2
	c-3.84-4.42-7.66-17.511-3-24c6.42,0.58,8.89,5.11,15,6c5.601,11.43,17.31,18.26,17,32c-0.05,2.21-2.63,4.479-3,6.999
	c-0.92,6.25,2.64,13.791,2,20c-0.79,7.621-6.09,12.771-9,18c-4.931,8.871-9.021,21.42-14,28c-3.431,4.531-10.51,9.711-14,10
	c1.37-1.279,1.37-4.719,0-6c-4.64-0.639-6.19,1.811-8,4c-0.35,12.49,5.93,18.602,8,28c0.41,1.84-0.52,4.34,0,6
	c2.35,7.51,6.49,11.59,9,18c3.75,9.59,8.06,22.531,7,33c1.72,0.391,2.56-1.479,3,0c2.62,6.551-3.28,8.961-4,15
	c2.33,3.121,7.74,5.191,11,2c3.7,3.301,4.229,9.771,6,15c5.11-1.109,3.681,4.32,5,7c-3.3-0.931-2.293,2.437-3.446,3.649
	c0.32,1.732-0.22,3.464-0.672,5.196c10.314,0.631,20.908,1.02,26.117-0.846c-2.369-6.629-8.119-9.879-12.999-14
	c-14.14-23.949-28.45-64.359-29-94c1.46-1.879,3.29-3.369,5-5c1.36-16.639,4.05-31.949,13-41c-0.01-0.039,0.101-0.719,0-1
	c4.08-11.898,36.89-32.27,16.999-47c6.781-0.869,5.852-5.029,14-3c0.971-5.09,4.131-8.499,2.002-13.999
	c-3.461-0.79-4.221,1.11-6.002,2c-1.648-4.351-7.279-4.72-11.999-6c-7.729-7.511-11.16-19.42-16-30c-1.94-4.25-5.05-7.72-5-11
	c0.06-3.86,7.09-13.39,9-16c1.601-2.19,2.39-5.39,3-6c2.19-2.19,12.931-7.511,14.999-8c5.121-1.21,12.561,4.159,13.002-5
	c-5.811-2.101-8.051,4.55-11.002,2c-0.322-6.483,10.184-2.145,13.371-5.124c-0.426-1.172-1.303-2.242-2.912-3.209
	c4.744-0.948,10.381-8.196,5.822-12.354c0.791,4.277-0.496,5.113-1.279,9.687c-5.371-1.71-3.5,3.829-8.002,3
	c-1.939-1.5,1.75-4.21-2-5c5.439-0.538,6.044-8.15,11.281-7.687c-4.487-2.297-6.26,3.646-8.822,5.354
	c-3.006,1.367-4.961,1.308-6.264,0.367c-0.066-0.014-0.127-0.02-0.195-0.034c-0.006-0.048-0.018-0.091-0.025-0.138
	c-2.719-2.309-2.33-8.812-3.029-13.77c-0.314-0.033-0.627-0.058-0.945-0.093c-1.83-1.17-3.389-2.61-4.999-4
	c-1.827-0.027-3.63-0.034-5.421-0.03c0.051,4.566-3.947,9.132-2.121,13.697c3.224,8.059-7.186,6.381-13.443,9.085
	c0.328,0.085,0.658,0.16,0.985,0.248c-8.399,6.3-15.649,13.601-27,16c-8.7,1.84-16.83,1.29-21,8c-0.19-1.479-2.42-0.92-4-1
	c-2.62,2.72-3.99,6.68-6,10c-5.55,1.149-6.07-0.851-9,0c-4.07,6.75,3.86,9.22,8,11c2.9,25.76,27.26,30.069,30,55.999
	c-1.49,2.51-4.22,3.779-7,5c0,3.67,0,7.33,0,11c-1.77,0.9-2.92,2.41-5,3c-0.22,0.781-0.03,1.971-1,2c-2.47,9.111-2.99,18.631-7,26
	c-2,3.67-6.52,6.121-10,10c-7.43,8.281-11.99,20.34-23,23c1.47-1.449,1.47-6.549,0-8c-6.28,0.881-7.9,1.102-12,3
	c-0.38,16.861,3.02,26.26,6,38c0.41,2.41-1.83,2.17-1,5c1.09,2.24,1.66,5.01,3,7c-1.29,7.441,2.02,17.58,1,27
	c-0.53,4.9-4.84,9.211-2,13c3.21,2.021,3.13-3.959,4-1c-1.22,3.141-4.04,5.291-2,9c-2.55,0.791-4.85,1.82-6,4
	c-0.51,9.5,9.16,11.92,14,13c2.06,5.25,1.66,8.25,1,14c1.86,3.621,6.19-0.439,7,3 M33.029,63.031c-4.02,0.259-2.25-8.171,2-6
	C34.119,58.781,34.689,62.021,33.029,63.031z M62.029,196.03c3.16,2.58-3,4.271-3,7C55.679,200.261,61.619,198.351,62.029,196.03z
	 M63.029,213.03c-3.78,0.121-1.49-5.85-5-6c0.56-2.9,1.56,1.531,3,1c1.92-0.109-1.17-3.35,0-6
	C68.139,203.171,59.849,209.651,63.029,213.03z M129.028,33.031c-0.439,1.229-1.279,2.049-3,2
	C126.47,33.802,127.31,32.981,129.028,33.031z M109.029,6.031c0.101,2.18,0.2,12.479-1,7C105.53,6.683,112.449-1.179,109.029,6.031z
	 M46.029,68.031c-2.99-1.351-4.42-4.25-5-8c1.23,0.44,2.05,1.28,2,3c2.67-1.46-0.42-5.49-3-5c0.27-2.06,3.73-0.94,4-3
	C48.369,55.94,49.399,65.371,46.029,68.031z M66.029,110.031c-4.32-16.341-17.41-23.921-22-40
	C51.779,82.951,63.209,92.181,66.029,110.031z M44.029,50.031c0.18,0.851-0.39,0.94-1,1c0.65,1.021,2.3,1.03,2,3
	c-1.42-0.091-2.83-0.171-3,1c-1-0.45,0.37-5.22-2-1C38.329,53.541,40.709,48.802,44.029,50.031z M38.029,57.031
	c2.92,10.18,5.2,18.87,11,27c7.6,10.649,17.55,21.46,16,34.001C63.049,91.33,33.699,86.711,38.029,57.031z M65.029,136.03
	c2.98,2.771-3.28-1.74-3,1c-2.72,0.719,0.72-4.721-2-4C62.169,129.69,61.979,136.981,65.029,136.03z M60.459,140.091
	c-0.17-0.012-0.31-0.029-0.43-0.061C60.219,140.03,60.359,140.04,60.459,140.091z M55.029,143.03c4.08,1.451-0.03,6.852-1,10
	c-1.22,3.98-2.2,8.41-4,11C49.809,159.132,53.639,149.651,55.029,143.03z M9.029,197.03c1,0,2,0,3,0c-0.18,3.16-0.7,5.961-4,6
	C7.899,200.571,7.879,198.21,9.029,197.03z M16.029,219.03c-0.13,3.871-4.06,3.941-5,7c-2.4,0.4,0.55-4.549-3-3
	c-1.16-3.57,3.03-6.869,1-8c1.73-3.24,2.62,2.602,6,1C14.939,217.45,14.859,218.86,16.029,219.03z M22.029,233.03
	c-2.35-0.32-3.75-1.58-7-1c0.66-1.34,2.14-1.859,4-2c-1.33-2.84-4.45,0.771-6,1c-1.46-1.209,4.24-3.709,8-3
	C22.319,230.392,20.899,229.892,22.029,233.03z M14.029,232.03c-0.25,1.09-1.99,0.68-2,2
	C9.259,233.601,11.979,230.882,14.029,232.03z M12.029,228.03c0.29-2.039,2.71-1.959,3-4
	C18.029,225.521,14.289,228.511,12.029,228.03z M3.029,198.03c3.02-1.539,2.63,5.17,1,5C0.429,203.991,2.259,198.71,3.029,198.03z
	 M6.029,221.03c-2.71-3.629-4.32-8.34-4-15c3.28-0.059,3.82-2.84,8-2C12.989,210.28,4.069,212.53,6.029,221.03z M8.029,228.03
	c2.21,0.121,0.42,4.24,1,6C6.289,234.011,6.649,229.312,8.029,228.03z M10.029,240.03c-0.67,0-1.33,0-2,0c0-0.67,0-1.33,0-2
	c0.67,0,1.33,0,2,0C10.029,238.7,10.029,239.36,10.029,240.03z M10.029,237.03c2.2-3.639,7.12-4.648,12-3
	C17.75,234.931,14.199,234.329,10.029,237.03z M42.029,340.03c-5,0-10,0-15,0c-0.11-4.109,4-4,3-9c2,0,4,0,6,0
	C37.389,334.671,41.089,335.972,42.029,340.03z M31.029,323.03c-0.26,2.932,2.26,3.07,2,6c-2.48-0.15-4.85-0.189-5,2
	c-1.47-2.189-2.15-5.18-6-5C25.079,325.081,26.329,322.331,31.029,323.03z M28.029,318.03c-0.42,2.25-5.48-0.15-5,3
	c-1.02-4.639-3.54-7.789-4-13c-3.08-0.75-1.92,2.75-5,2c-0.36-4.029,5.78-1.549,5-6c1.44-0.529,2.44,3.9,3,1
	C23.539,309.851,24.159,315.571,28.029,318.03z M22.029,244.03c-1.36-0.309-0.83-2.5-1-4c-3.05,17.91-2.98,43.301,1,60
	c-1.48-0.52-2.52-1.479-4-2c-1.38,1.291-0.99,4.342-1,7c-2.83,1.041-4.17,1.041-7,0c-1.47-5.469,2.55-5.449,4-8
	c-0.16-1.17-1.82-0.84-3-1c3.98-12.859,2.79-36.24,0-57c3.13,0.471,2.82-2.51,4-4c3.03,0.311,3.57,3.09,8,2
	C23.609,240.28,22.349,241.681,22.029,244.03z M23.029,227.03c-3.14,0.469-4.09-1.25-5-3c-0.26-3.26,3.88-2.119,4-5
	C25.289,220.841,22.289,222.7,23.029,227.03z M30.029,210.03c0,2.33,0,4.67,0,7c-7.21-2.84-6.05-0.07-12,2c-1.7-4.67-0.02-5.898,3-8
	c-2.52-3.1-3.25,4.021-8,2c1.18-3.16,5.19-3.479,7-6c-2.56-2.82-4.05,3.891-8,3c2.93-8.01,12.91-11.289,18-18
	c1.05-1.389,0.83-3.59,2-5c2.79-3.34,7.2-5.729,10-9c8.15-9.49,12.06-19.74,18-32c3.26-0.26,2.12,3.881,5,4
	c-1.89,3.451-2.96,7.711-5,11c3.9,0.881,4.29-10.359,8-13c0.77,7.771-4.77,9.23-5,16C49.389,176.722,38.719,192.38,30.029,210.03z
	 M73.029,155.03c1.08,1.791-5.39,4.58-8,6c3.57-3.77,3.96-10.709,7-15c-1.33-0.189-3.92,0.631-9,0c1.84-4.889,6.57-3.799,10-3
	C74.149,147.271,71.079,156.45,73.029,155.03z M62.029,141.03c-2.81-0.43,2.51,3.73-1,4c-5.26,0.129,0.81-4.371-0.56-4.939
	c2.67,0.209,11.11-1.301,13.56-0.061C73.3,143.45,66.789,139.749,62.029,141.03z M75.029,154.03c-3.04-1.23,1.08-3.439,0-6
	C77.849,149.04,74.749,152.28,75.029,154.03z M87.029,123.03c-1.58,3.75-3.63,7.041-5,11
	C77.119,131.38,81.079,121.382,87.029,123.03z M85.029,133.03c-0.479-3.15,1.42-3.91,2-6c3.14,0.189,4.81,1.859,5,5
	C90.739,133.411,87.689,133.021,85.029,133.03z M82.029,117.031c-2.37,2.3-6.31-2.31-8-4c-1.55,2.64,0.38,5.71-1,9.999
	c2.81,0.15,2.88-2.449,3-4.998c4.19,3.479,15.63-0.291,15,7.998c-4.62-9.159-18.33-0.471-13,9c-3.41-0.92-2.06-6.6-4-9
	c0.8,0.529,1.62,1.041,3,1c-1.819-2.85-5.49-3.84-8-6c1.37,6.369-3.74,6.26-3,12c1.91-2.09,3.22-4.779,4-8
	c2.979,1.721,5.3,8.189,3,12c-4.64-0.359-7.47-2.529-10-5c15.101-24.529-8.28-45.529-16-62.999c2.13,0.47,1.9-1.431,2-3
	c4.07,4.31,4,9.88,7,15c2.48,4.229,7.48,7.021,10,11C71.369,100.472,72.539,111.951,82.029,117.031z M92.029,93.031
	c-2.31-2.931-4.03-6.71-5-9c-1.431-1.57-5.21-0.79-5-4c1.45-0.55,5.17,1.17,5-1c4.101,5.56,6.931,12.399,11,18
	C97.46,100.642,93.479,94.871,92.029,93.031z M84.029,69.031c0.021-3.649,2.84-4.49,4-7c1.2,1.601-0.33,8.96-1,12
	C85.27,73.121,85.199,70.531,84.029,69.031z M70.029,238.03C67.089,238.741,68.309,228.901,70.029,238.03L70.029,238.03z
	 M67.029,230.03c0.11-1.889,3.31-0.689,3-3C71.919,227.12,69.789,231.312,67.029,230.03z M86.029,299.03c-2.729,0.73-2.01-1.99-4-2
	C82.659,294.601,87.079,296.501,86.029,299.03z M118.028,327.03c-0.959,2.512-10.029-0.209-16.999-1
	C105.149,315.892,113.259,320.63,118.028,327.03z M107.029,317.03c-2.01-0.34-3.13,0.201-3,2c-1.06-3.07-6.12-5.9-3-10
	C105.929,308.802,106.27,313.122,107.029,317.03z M99.029,299.03c0.45,2.551,1.399,4.602,3,6c-0.681,2.32-3.319,2.682-4,5
	c-3.24-1.43-0.66-8.67-5-9C93.949,299.28,96.159,298.821,99.029,299.03z M96.029,293.03c2.03,4.391-2.49,4.07-7,4
	c3.05-3.09,5.05,0.73,7-1c2.19-1.949-6.22-1.189-3-4c-0.851-2.59-4.39,1.92-6-1c-2.06-22.609-10.55-38.779-15-59
	c2.88,0.121,6.55-0.549,8,1C81.64,249.231,88.419,276.54,96.029,293.03z M78.029,230.03C70.429,230.96,74.679,225.161,78.029,230.03
	L78.029,230.03z M83.029,217.03c-2.06-0.27-0.24-4.43-3-4c-3.36,0.641-3.2,4.791-3,9c3-2.229,0.05-4.619,2-7
	c2.26,0.75,0.39,5.611,1,8c-3.51,0.49-6.51,1.49-11,1c-3.13-3.75-6.03-11.209-4-17c7.8-2.41,7.931,8.32,7,13
	c5.819-5.449,1.05-14.148-5-16c14.681-11.66,24.17-28.5,31-48c4.21-3.119,5.71-8.959,6-16c-1.72,0.07-2.479-1.559-2-6
	c2.681,0.58,8.351-0.859,6-2c1.96-2.061,6.989,9.51,11.999,11C105.649,165.651,85.109,182.11,83.029,217.03z M106.029,131.03
	c-0.229,1.439-2.979,0.35-3,2C99.819,131.899,103.989,130.181,106.029,131.03z M121.028,141.03c-4.67-0.67-5.17-5.5-7.999-8
	c1.46,1.43,3.169,0.77,2.999-2C120.159,131.899,121.028,136.03,121.028,141.03z M126.028,124.03c1.09-2.24,1.66-5.01,3-6.999
	C130.358,117.782,129.538,124.812,126.028,124.03z M122.028,111.031c3.26-0.261,2.121,3.88,5,4c1.23-0.44,2.051-1.28,2-3
	c3.781,3.739-3.59,5.909-4,6.001c-0.559-1.73-1.26-8.501-8-7.001c-3.059,3.13,1.23,7.39,0,11.999c4.031,1.031,4.441-1.559,6-2.998
	c3.5,2.189-11.619,6.248-8,11.998c-0.999,0-1.999,0-2.999,0c-4.11-2.01,1.181-3.27,2-6c-4.56,1.52-7.05,5.92-12,2
	c4.28-13.6-0.26-26.159-6-36.999c-2.601-4.92-8.92-12.31-3-18C102.339,86.062,102.88,107.851,122.028,111.031z M123.028,115.031
	c0.541,3.87-2.549,4.12-3,6.999c-2.209-1.459-0.789-6.539-3-7.999c-0.17-2.17,3.551-0.45,5-1
	C121.868,114.19,122.249,114.812,123.028,115.031z M107.029,41.031c-7.06,5.92-10.819,14.14-16,22c0.09,6.76,0.55,13.88-5,15
	c3.431-3.91,4.81-9.86,4-18c-2.5-0.171-3.13,1.54-4,3c-2.96-1.75,0.58-5.33,0-8c3.069-0.261,4.5-2.171,7-3
	c2.649-7.021,8.7-10.63,14-15c-6.681-0.33-12.229,9.101-16,15c-12.67,3.86-6.11,14.81-8,25c-3.19-0.86-3.09,1.569-5,2
	c-3.96-1.181-8.41-5.41-11,0c-0.69-1.25-1.16-3.431,0-5c0.19-0.261,1.32,2.25,2,2c0.26-0.101,1.19-6.3,5-6c-0.53,0.8-1.04,1.62-1,3
	c1.601-1.399,2.55-3.45,3-6c-4.53-0.74,1.53,2.739-3,2c0.67-8.36-7.12-21.24-20-16c1.27,2.899,7.62,0.159,12,2
	c3.09,3.239,4.25,8.409,7,12c-0.62,2.38-1.34,4.659-4,5c1.39-4.5,1.26-9.62-2-12c0.75,3.06,1.97,18.04-4,17
	c1.41,3.59,1.09,8.909,3,12c-7.16-6.841-10.02-17.979-15-27c4.01-2.55,10.17-5.89,15-2c-1.92-6.11-11.69-3.75-15-2
	c-3.29-4.08-1.9-8.06-1-10c3.25-6.99,13-3.89,22-6c9.42-2.21,15.59-11.511,21-15c1.79-0.13,2.11,1.22,4,1c0.58-0.761-1.979-1.04-2-1
	c0.351-0.979,5.81-5.771,7-6c0.46-0.091,2.39,1.79,2,2c4.75-2.54,7.05-4.171,8-8c0.399-1.62-1.45-5.601-0.01-9.96
	c0,0.759,7.089,0.189,1.01-1.04c0.39-3.22,8.38,1.93,7.999,6c-1.76-0.899-1.648-3.681-4-4c2.82,7.351,8.361,22.95-6.999,23
	c0.44,4.579,3.19,4.659-1,7c0.24,2.579,1.72-1.37,4,0C112.27,39.632,108.869,39.491,107.029,41.031z M114.029,35.031
	c0.749-3.08-2.74-1.92-2-5c2.169,2.989,6.509-4.08,7.999-5c0.99-0.61,2.621,1.51,3,1c1.701-2.3-1.939-2.841,0-5
	c2.631,1.03,3.371,3.97,6,5C121.118,26.121,121.749,34.751,114.029,35.031z"/>
</svg>
